<svg xmlns="http://www.w3.org/2000/svg" viewBox="0 0 512 512" width="512" height="512">
  <rect width="512" height="512" fill="none"/>
  <g>
    <!-- Coffee Cup -->
    <path d="M390 150H120c-16.6 0-30 13.4-30 30v130c0 66.2 53.8 120 120 120h90c66.2 0 120-53.8 120-120v-10h10c55.2 0 100-44.8 100-100s-44.8-100-100-100h-40z" fill="#ffffff"/>
    <path d="M120 180h270v120c0 49.7-40.3 90-90 90h-90c-49.7 0-90-40.3-90-90V180z" fill="#d4a76a"/>
    <path d="M350 180v120c0 33.1-26.9 60-60 60H190c-33.1 0-60-26.9-60-60V180h220z" fill="#6f4e37"/>
    <!-- Steam -->
    <path d="M230 100c0-13.8-11.2-25-25-25s-25 11.2-25 25c0 13.8 11.2 25 25 25" fill="none" stroke="#ffffff" stroke-width="10" stroke-linecap="round"/>
    <path d="M300 100c0-13.8-11.2-25-25-25s-25 11.2-25 25c0 13.8 11.2 25 25 25" fill="none" stroke="#ffffff" stroke-width="10" stroke-linecap="round"/>
    <path d="M190 75c0-16.6-13.4-30-30-30s-30 13.4-30 30 13.4 30 30 30" fill="none" stroke="#ffffff" stroke-width="10" stroke-linecap="round"/>
  </g>
  <!-- Text -->
  <text x="256" y="400" font-family="Arial, sans-serif" font-size="70" font-weight="bold" text-anchor="middle" fill="#ffffff">TomCafe</text>
</svg> 